<svg width="1806" height="595" viewBox="0 0 1806 595" fill="none" xmlns="http://www.w3.org/2000/svg">
<g clip-path="url(#clip0_0_3)">
<path fill-rule="evenodd" clip-rule="evenodd" d="M203.5 0H0V293.5C0 376.093 0 417.389 15.8183 449.047C25.0768 467.576 38.0111 483.869 53.7031 497.008C44 467.04 44 426.677 44 356.5V48H267.5C340.068 48 380.756 48 411.036 58.729C397.261 40.764 379.519 26.0475 359.047 15.8183C327.389 0 286.093 0 203.5 0Z" fill="url(#paint0_radial_0_3)"/>
<path fill-rule="evenodd" clip-rule="evenodd" d="M203.5 0H0V293.5C0 376.093 0 417.389 15.8183 449.047C25.0768 467.576 38.0111 483.869 53.7031 497.008C44 467.04 44 426.677 44 356.5V48H267.5C340.068 48 380.756 48 411.036 58.729C397.261 40.764 379.519 26.0475 359.047 15.8183C327.389 0 286.093 0 203.5 0Z" fill="#D9D9D9" fill-opacity="0.2" style="mix-blend-mode:multiply"/>
<path fill-rule="evenodd" clip-rule="evenodd" d="M221 81H79V356.5C79 439.093 79 480.389 94.8183 512.047C109.337 541.104 132.896 564.663 161.953 579.182C193.611 595 234.907 595 317.5 595H506V319.5C506 236.907 506 195.611 490.182 163.953C475.663 134.896 452.104 111.337 423.047 96.8183C409.163 89.8811 393.426 85.9863 373.165 83.7995C393.442 91.9055 411.258 116.26 408.766 144.256V401L346.941 324.154L285.115 401C287.024 327.213 289.695 169.315 285.115 128.025C280.536 86.7349 242.753 81.0559 221 81Z" fill="url(#paint1_radial_0_3)"/>
<path d="M757 459.2L802.2 136H944.2L938.2 174.4H838.2L824.6 271.6H911L905 310H819L803.4 420.8H908.2L902.2 459.2H757Z" fill="black"/>
<path d="M941.284 283.2H1034.08L1028.88 318.4H936.084L941.284 283.2Z" fill="black"/>
<path d="M1130.85 463.2C1098.05 463.2 1076.32 449.867 1065.65 423.2C1054.99 396.267 1053.39 354.667 1060.85 298.4C1068.59 241.067 1081.79 199.067 1100.45 172.4C1119.12 145.467 1143.39 132 1173.25 132C1206.59 132 1228.45 145.467 1238.85 172.4C1249.52 199.067 1250.99 241.067 1243.25 298.4C1235.79 354.667 1222.72 396.267 1204.05 423.2C1185.65 449.867 1161.25 463.2 1130.85 463.2ZM1134.85 425.2C1153.25 425.2 1166.99 414.933 1176.05 394.4C1185.39 373.6 1193.39 341.6 1200.05 298.4C1206.72 254.667 1207.92 222.4 1203.65 201.6C1199.39 180.533 1188.19 170 1170.05 170C1151.65 170 1137.65 180.533 1128.05 201.6C1118.72 222.4 1110.72 254.667 1104.05 298.4C1097.39 341.6 1096.32 373.6 1100.85 394.4C1105.65 414.933 1116.99 425.2 1134.85 425.2Z" fill="black"/>
<path d="M1393.87 459.2H1357.07L1359.07 437.2C1353.2 445.2 1346.53 451.467 1339.07 456C1331.87 460.8 1324.27 463.2 1316.27 463.2C1303.47 463.2 1292.4 458.933 1283.07 450.4C1274 441.867 1267.73 428 1264.27 408.8C1260.8 389.333 1261.33 363.467 1265.87 331.2C1271.47 290.667 1281.6 260.667 1296.27 241.2C1311.2 221.467 1328.4 211.6 1347.87 211.6C1365.73 211.6 1378.67 219.733 1386.67 236L1389.47 215.2H1428.27L1393.87 459.2ZM1305.47 335.6C1303.33 352.667 1302.13 368.133 1301.87 382C1301.87 395.867 1303.73 406.933 1307.47 415.2C1311.2 423.2 1317.6 427.2 1326.67 427.2C1333.07 427.2 1338.8 424.933 1343.87 420.4C1349.2 415.6 1353.73 409.467 1357.47 402C1361.2 394.533 1364.13 386.667 1366.27 378.4L1379.07 289.2C1379.33 276.933 1376.93 266.933 1371.87 259.2C1367.07 251.467 1360.27 247.6 1351.47 247.6C1343.2 247.6 1336 251.6 1329.87 259.6C1323.73 267.6 1318.67 278.267 1314.67 291.6C1310.67 304.933 1307.6 319.6 1305.47 335.6Z" fill="black"/>
<path d="M1463.99 394.8C1464.52 405.467 1467.72 413.6 1473.59 419.2C1479.72 424.8 1486.66 427.6 1494.39 427.6C1500.52 427.6 1506.12 425.733 1511.19 422C1516.52 418 1519.86 411.467 1521.19 402.4C1522.79 393.6 1521.99 385.6 1518.79 378.4C1515.59 371.2 1510.92 364.4 1504.79 358C1498.92 351.333 1492.52 344.8 1485.59 338.4C1478.92 331.733 1472.79 324.667 1467.19 317.2C1461.59 309.733 1457.46 301.333 1454.79 292C1452.39 282.4 1452.52 271.6 1455.19 259.6C1457.59 248.133 1461.99 238.933 1468.39 232C1475.06 224.8 1482.79 219.6 1491.59 216.4C1500.66 212.933 1509.86 211.2 1519.19 211.2C1529.86 211.2 1539.86 213.6 1549.19 218.4C1558.79 222.933 1566.39 230.133 1571.99 240C1577.59 249.867 1579.72 262.667 1578.39 278.4H1543.99C1544.52 266.933 1542.26 258.667 1537.19 253.6C1532.12 248.267 1526.12 245.6 1519.19 245.6C1513.59 245.6 1508.39 247.2 1503.59 250.4C1499.06 253.6 1495.99 259.467 1494.39 268C1493.06 274.933 1493.99 281.6 1497.19 288C1500.66 294.133 1505.19 300.267 1510.79 306.4C1516.66 312.533 1522.92 318.933 1529.59 325.6C1536.26 332.267 1542.39 339.467 1547.99 347.2C1553.59 354.933 1557.72 363.467 1560.39 372.8C1563.32 382.133 1563.72 392.8 1561.59 404.8C1559.46 417.867 1554.79 428.8 1547.59 437.6C1540.39 446.133 1531.86 452.533 1521.99 456.8C1512.12 461.067 1501.86 463.2 1491.19 463.2C1480.26 463.2 1469.86 460.8 1459.99 456C1450.39 451.2 1442.52 443.867 1436.39 434C1430.52 424.133 1427.59 411.6 1427.59 396.4L1463.99 394.8Z" fill="black"/>
<path d="M1639.15 188.8C1631.69 188.8 1626.09 186.267 1622.35 181.2C1618.62 176.133 1617.29 169.6 1618.35 161.6C1619.69 153.867 1622.62 147.467 1627.15 142.4C1631.69 137.067 1638.09 134.4 1646.35 134.4C1654.09 134.4 1659.82 137.067 1663.55 142.4C1667.29 147.467 1668.49 153.867 1667.15 161.6C1666.09 169.6 1663.15 176.133 1658.35 181.2C1653.82 186.267 1647.42 188.8 1639.15 188.8ZM1619.95 459.2H1581.15L1615.55 215.2H1654.35L1619.95 459.2Z" fill="black"/>
<path d="M1690.94 394.8C1691.48 405.467 1694.68 413.6 1700.54 419.2C1706.68 424.8 1713.61 427.6 1721.34 427.6C1727.48 427.6 1733.08 425.733 1738.14 422C1743.48 418 1746.81 411.467 1748.14 402.4C1749.74 393.6 1748.94 385.6 1745.74 378.4C1742.54 371.2 1737.88 364.4 1731.74 358C1725.88 351.333 1719.48 344.8 1712.54 338.4C1705.88 331.733 1699.74 324.667 1694.14 317.2C1688.54 309.733 1684.41 301.333 1681.74 292C1679.34 282.4 1679.48 271.6 1682.14 259.6C1684.54 248.133 1688.94 238.933 1695.34 232C1702.01 224.8 1709.74 219.6 1718.54 216.4C1727.61 212.933 1736.81 211.2 1746.14 211.2C1756.81 211.2 1766.81 213.6 1776.14 218.4C1785.74 222.933 1793.34 230.133 1798.94 240C1804.54 249.867 1806.68 262.667 1805.34 278.4H1770.94C1771.48 266.933 1769.21 258.667 1764.14 253.6C1759.08 248.267 1753.08 245.6 1746.14 245.6C1740.54 245.6 1735.34 247.2 1730.54 250.4C1726.01 253.6 1722.94 259.467 1721.34 268C1720.01 274.933 1720.94 281.6 1724.14 288C1727.61 294.133 1732.14 300.267 1737.74 306.4C1743.61 312.533 1749.88 318.933 1756.54 325.6C1763.21 332.267 1769.34 339.467 1774.94 347.2C1780.54 354.933 1784.68 363.467 1787.34 372.8C1790.28 382.133 1790.68 392.8 1788.54 404.8C1786.41 417.867 1781.74 428.8 1774.54 437.6C1767.34 446.133 1758.81 452.533 1748.94 456.8C1739.08 461.067 1728.81 463.2 1718.14 463.2C1707.21 463.2 1696.81 460.8 1686.94 456C1677.34 451.2 1669.48 443.867 1663.34 434C1657.48 424.133 1654.54 411.6 1654.54 396.4L1690.94 394.8Z" fill="black"/>
<path d="M1622.35 181.2C1626.09 186.267 1631.69 188.8 1639.15 188.8C1647.42 188.8 1653.82 186.267 1658.35 181.2C1663.15 176.133 1666.09 169.6 1667.15 161.6C1668.49 153.867 1667.29 147.467 1663.55 142.4C1659.82 137.067 1654.09 134.4 1646.35 134.4C1638.09 134.4 1631.69 137.067 1627.15 142.4C1622.62 147.467 1619.69 153.867 1618.35 161.6C1617.29 169.6 1618.62 176.133 1622.35 181.2Z" fill="url(#paint2_linear_0_3)"/>
</g>
<defs>
<radialGradient id="paint0_radial_0_3" cx="0" cy="0" r="1" gradientUnits="userSpaceOnUse" gradientTransform="translate(10.049 -119.048) rotate(72.3962) scale(646.323 534.857)">
<stop stop-color="#3ED680"/>
<stop offset="1" stop-color="#2EC678"/>
</radialGradient>
<radialGradient id="paint1_radial_0_3" cx="0" cy="0" r="1" gradientUnits="userSpaceOnUse" gradientTransform="translate(89.4393 -42.1178) rotate(72.322) scale(668.695 555.401)">
<stop stop-color="#C0F25E"/>
<stop offset="1" stop-color="#93E65C"/>
</radialGradient>
<linearGradient id="paint2_linear_0_3" x1="1619.1" y1="132.2" x2="1672.6" y2="191.2" gradientUnits="userSpaceOnUse">
<stop stop-color="#93E65C"/>
<stop offset="1" stop-color="#3ED680"/>
</linearGradient>
<clipPath id="clip0_0_3">
<rect width="1806" height="595" fill="white"/>
</clipPath>
</defs>
</svg>
